# xmcd
#
# Track frame offsets:
#   150
#   10691
#   21347
#   33945
#   46315
#   55975
#   68486
#   78652
#   88826
#   101284
#   112616
#   122128
#   133528
#   143400
#   157153
#   168693
#   179135
#   188247
#   197420
#   209847
#   220093
#
# Disc length: 3104 seconds
#
# Revision: 0
# Processed by: cddbd v1.4PL0 Copyright (c) Steve Scherf et al.
# Submitted via: uFREEDB 1.6.0
#
DISCID=260c1e15
DTITLE=Martin, Dean - Tracks 1956
DYEAR=1900
DGENRE=Vocal
TTITLE0=The Look
TTITLE1=Mississippi Dreamboat
TTITLE2=Standing On The Corner
TTITLE3=Street Of Love
TTITLE4=Watching The World Go By
TTITLE5=Pardners (with Jerry Lewis)
TTITLE6=The Test Of Time
TTITLE7=Me 'N' You 'N' The Moon
TTITLE8=The Wind, The Wind
TTITLE9=I'm Gonna Steal You Away
TTITLE10=Bamboozled
TTITLE11=Give Me A Sign
TTITLE12=Captured
TTITLE13=I Know I Can't Forget
TTITLE14=I Never Had A Chance
TTITLE15=It Looks Like Love
TTITLE16=Let's Be Friendly
TTITLE17=Just Kiss Me
TTITLE18=A Day In The Country
TTITLE19=Hollywood Or Bust
TTITLE20=The Man Who Plays The Mandoline
EXTD=
EXTT0=
EXTT1=
EXTT2=
EXTT3=
EXTT4=
EXTT5=
EXTT6=
EXTT7=
EXTT8=
EXTT9=
EXTT10=
EXTT11=
EXTT12=
EXTT13=
EXTT14=
EXTT15=
EXTT16=
EXTT17=
EXTT18=
EXTT19=
EXTT20=
PLAYORDER=
